<?xml version="1.0" standalone="no"?><!DOCTYPE svg PUBLIC "-//W3C//DTD SVG 1.1//EN" "http://www.w3.org/Graphics/SVG/1.1/DTD/svg11.dtd"><svg t="1724076175690" class="icon" viewBox="0 0 1024 1024" version="1.1" xmlns="http://www.w3.org/2000/svg" p-id="8118" xmlns:xlink="http://www.w3.org/1999/xlink" width="200" height="200"><path d="M815.184 402.96l21.185-27.739-24.631-24.642 16.253-30.864-28.506-20.224 10.806-33.137-31.554-15.166 4.951-34.564-33.525-9.582-1.009-34.817-34.583-3.728-6.826-34.186-34.836 2.087-12.437-32.409-34.020 7.922-17.651-29.855-32.254 13.545-22.623-26.506-29.35 18.826-26.932-22.311-25.602 23.457-30.235-17.427-21.273 27.545-32.71-12.059-16.407 30.787-34.302-6.379-10.953 33.002-34.875-0.525-5.204 34.428-34.564 5.37 0.709 34.895-32.884 11.098 6.428 34.254-30.69 16.603 12.175 32.652-27.419 21.486 17.602 29.982-23.409 25.767 22.418 26.797-18.573 29.331 26.457 22.544-13.515 32.311 30.011 17.583-7.933 33.933 32.681 12.398-2.049 34.73 34.273 6.709 3.863 34.672 34.359 0.767-116.654 287.806c-2.301 5.631-0.797 12.175 3.728 16.272 4.554 4.155 11.175 4.951 16.554 2.078l119.382-62.779 52.535 97.683c2.533 4.718 7.486 7.68 12.797 7.68 0.253 0 0.544 0 0.797 0 5.602-0.34 10.612-3.844 12.69-9.049l94.858-233.901 88.274 233.473c2.010 5.321 6.883 8.961 12.476 9.389 0.398 0.030 0.778 0.030 1.136 0.030 5.233 0 10.107-2.786 12.69-7.37l55.011-97.168 117.926 64.429c2.31 1.252 4.951 1.825 7.282 1.767 6.923 0.34 14.884-6.398 14.884-14.563 0-3.243-1.077-6.233-2.883-8.651l-112.11-296.242 32.749-2.331 2.388-34.672 33.963-8.301-3.68-34.7 31.894-13.825-9.389-33.565 29.243-19.117-15.058-31.495 25.602-23.739-19.922-28.496zM402.676 942.393l-44.661-83.090c-2.622-4.894-7.65-7.68-12.854-7.68-2.301 0-4.583 0.514-6.738 1.709l-96.963 50.973 93.012-229.434 26.34-3.952 15.214 31.35 33.195-10.865 20.37 28.418 30.778-16.361 24.835 24.351 6.603-5.087-89.129 219.667zM779.854 906.5l-96.032-52.418c-6.98-3.817-15.739-1.311-19.661 5.573l-46.759 82.605-83.42-220.649 7.243 5.087 23.719-25.739 31.516 14.816 19.040-29.273 33.584 9.244 12.272-28.555 0.593 0.146c3.903 0.854 7.505-0.485 10.681-2.641l16.331 1.651 90.896 240.153zM758.308 423.427l-19.622 18.234 11.543 24.176-22.302 14.593 7.204 25.709-24.612 10.67 2.845 26.593-25.885 6.311-1.787 26.681-26.778 1.932-6.165 25.913-26.563-2.641-10.563 24.544-25.709-7.078-14.563 22.447-24.234-11.408-18.108 19.68-21.845-15.33-21.282 16.361-19.117-18.777-23.524 12.457-15.534-21.67-25.457 8.301-11.69-24.068-26.429 3.922-7.457-25.709-26.709-0.621-2.962-26.506-26.283-5.174 1.564-26.622-25.030-9.524 6.087-26.137-23.098-13.545 10.272-24.574-20.34-17.292 14.311-22.506-17.127-20.477 18.059-19.903-13.515-23.010 20.875-16.369-9.389-25.078 23.497-12.738-4.922-26.204 25.398-8.592-0.573-26.681 26.429-4.116 3.981-26.457 26.709 0.417 8.417-25.311 26.37 4.894 12.544-23.583 25.205 9.282 16.301-21.147 23.126 13.341 19.71-18.059 20.622 17.069 22.359-14.321 17.234 20.205 24.69-10.34 13.545 22.923 26.165-6.107 9.554 24.894 26.778-1.632 5.253 26.292 26.506 2.854 0.778 26.661 25.662 7.34-3.817 26.525 24.079 11.535-8.272 25.398 21.845 15.495-12.457 23.7 18.903 18.943-16.214 21.225 15.515 21.796z" fill="#d81e06" p-id="8119"></path><path d="M714.375 373.532l-7.204-7.223 4.777-9.029c3.398-6.466 1.475-14.437-4.457-18.66l-8.398-5.952 3.185-9.728c2.253-6.942-0.971-14.467-7.563-17.612l-9.233-4.437 1.437-10.213c1.020-7.195-3.437-14.049-10.428-16.089l-9.845-2.826-0.281-10.243c-0.204-7.282-5.787-13.282-13.029-14.049l-10.126-1.097-2.029-10.079c-1.388-7.106-7.359-11.971-15.156-11.67l-10.282 0.602-3.641-9.524c-2.563-6.815-9.787-10.593-16.913-8.98l-10.049 2.331-5.174-8.727c-3.718-6.301-11.495-8.864-18.165-6.010l-9.554 4-6.641-7.777c-4.718-5.564-12.797-6.757-18.943-2.835l-8.612 5.505-8-6.622c-5.573-4.641-13.787-4.457-19.136 0.495l-7.534 6.902-8.874-5.117c-6.339-3.641-14.388-2.049-18.826 3.728l-6.233 8.068-9.642-3.583c-6.796-2.506-14.448 0.407-17.893 6.826l-4.806 9.059-10.156-1.874c-7.136-1.223-14.165 2.854-16.467 9.728l-3.214 9.699-10.272-0.146c-0.058 0-0.146 0-0.223 0-7.166 0-13.282 5.281-14.359 12.389l-1.564 10.126-10.156 1.572c-7.195 1.136-12.457 7.397-12.321 14.709l0.204 10.253-9.699 3.262c-6.883 2.301-11.010 9.331-9.67 16.467l1.904 10.126-9.078 4.922c-6.398 3.466-9.271 11.117-6.679 17.893l3.612 9.642-8.049 6.311c-5.748 4.495-7.252 12.555-3.583 18.817l5.147 8.806-6.855 7.593c-4.894 5.389-5.087 13.545-0.427 19.117l6.66 7.884-5.515 8.689c-3.863 6.107-2.641 14.146 2.902 18.864l7.796 6.622-3.981 9.554c-2.816 6.689-0.204 14.486 6.087 18.186l8.787 5.117-2.331 9.981c-1.651 7.078 2.195 14.311 8.991 16.924l9.612 3.641-0.573 10.185c-0.427 7.282 4.583 13.767 11.747 15.136l10.098 1.99 1.136 10.185c0.825 7.282 6.883 12.767 14.165 12.972l10.243 0.223 2.874 9.903c2.019 7.001 9.019 11.349 16.127 10.321l10.098-1.505 4.466 9.214c3.185 6.573 10.7 9.787 17.602 7.457l9.815-3.155 6.001 8.331c4.243 5.913 12.234 7.796 18.69 4.38l9.019-4.777 7.34 7.166c2.816 2.786 6.485 4.185 10.185 4.185 3.126 0 6.262-1.001 8.903-3.039l8.087-6.205 8.379 5.865c5.952 4.213 14.146 3.3 19.098-2.049l7.001-7.563 9.233 4.35c6.603 3.155 14.448 0.825 18.428-5.262l5.573-8.651 9.903 2.729c7.039 1.962 14.388-1.591 17.273-8.282l4.039-9.418 10.205 1.020c7.321 0.621 13.942-4.039 15.621-11.126l2.35-9.922 10.243-0.709c7.263-0.544 12.972-6.282 13.486-13.545l0.679-10.272 10.011-2.446c7.059-1.738 11.777-8.417 11.020-15.641l-1.077-10.243 9.35-4.039c6.689-2.932 10.224-10.302 8.253-17.292l-2.729-9.903 8.592-5.631c6.127-3.981 8.34-11.865 5.174-18.447l-4.399-9.252 7.505-7.001c5.349-4.951 6.165-13.118 1.951-19.040l-5.874-8.359 6.224-8.156c4.282-5.642 3.767-13.825-1.369-18.981zM679.442 408.892l4.718 6.709-6.029 5.583c-4.66 4.369-5.971 11.203-3.243 16.951l3.545 7.438-6.845 4.476c-5.33 3.466-7.777 10.011-6.068 16.097l2.223 7.903-7.524 3.243c-5.865 2.563-9.389 8.592-8.689 14.932l0.893 8.165-7.961 1.932c-6.146 1.534-10.642 6.826-11.078 13.165l-0.573 8.224-8.213 0.621c-6.369 0.457-11.661 4.951-13.146 11.146l-1.913 7.903-8.194-0.797c-6.273-0.514-12.291 2.932-14.806 8.757l-3.223 7.534-7.922-2.195c-6.127-1.709-12.612 0.797-16.078 6.116l-4.495 6.942-7.457-3.495c-5.748-2.699-12.534-1.369-16.913 3.273l-5.612 6.087-6.679-4.718c-5.213-3.641-12.175-3.466-17.243 0.398l-6.573 5.039-5.913-5.776c-2.786-2.757-6.457-4.185-10.185-4.185-2.331 0-4.66 0.544-6.826 1.679l-7.195 3.863-4.777-6.709c-3.67-5.117-10.272-7.37-16.331-5.349l-7.854 2.563-3.583-7.397c-2.816-5.718-9.078-8.932-15.243-8.049l-8.107 1.195-2.301-7.933c-1.767-6.087-7.311-10.321-13.651-10.466l-8.194-0.223-0.884-8.107c-0.709-6.339-5.457-11.467-11.69-12.719l-8.107-1.591 0.514-8.137c0.369-6.369-3.418-12.234-9.389-14.448l-7.709-2.99 1.844-7.99c1.446-6.262-1.311-12.69-6.796-15.874l-7.059-4.155 3.155-7.642c2.446-5.815 0.825-12.574-4.010-16.679l-6.262-5.34 4.407-6.923c3.36-5.37 2.932-12.31-1.136-17.166l-5.321-6.35 5.545-6.107c4.262-4.699 5.010-11.651 1.767-17.174l-4.127-7.010 6.398-5.049c4.981-3.903 6.883-10.602 4.66-16.554l-2.874-7.738 7.252-3.962c5.545-3.028 8.563-9.252 7.37-15.506l-1.534-8.087 7.826-2.651c6.029-2 10.038-7.748 9.903-14.059l-0.175-8.224 8.165-1.252c6.262-1.001 11.203-5.941 12.146-12.234l1.223-8.107 8.194 0.126c5.69-0.689 12.030-3.962 14.049-9.962l2.563-7.767 8.165 1.505c6.233 1.077 12.514-1.863 15.534-7.486l3.863-7.252 7.738 2.874c5.971 2.135 12.69 0.261 16.583-4.757l4.981-6.476 7.106 4.108c5.485 3.174 12.428 2.427 17.127-1.883l6.059-5.545 6.379 5.311c4.894 4.048 11.796 4.495 17.127 1.039l6.883-4.388 5.292 6.205c4.116 4.835 10.884 6.476 16.729 3.981l7.642-3.174 4.194 7.001c3.204 5.476 9.631 8.156 15.836 6.757l8.117-1.883 2.923 7.69c2.272 5.903 7.854 9.505 14.506 9.282l8.253-0.495 1.632 8.059c1.252 6.273 6.388 10.961 12.738 11.621l8.097 0.884 0.223 8.186c0.204 6.35 4.476 11.855 10.582 13.602l7.941 2.242-1.175 8.175c-0.912 6.292 2.388 12.476 8.117 15.175l7.397 3.553-2.544 7.815c-1.951 6.048 0.261 12.7 5.446 16.369l6.679 4.748-3.817 7.233c-2.962 5.631-1.893 12.593 2.602 17.117l5.806 5.796-4.99 6.554c-3.952 5.039-4.108 12.059-0.427 17.243z" fill="#d81e06" p-id="8120"></path><path d="M505.194 260.78c-74.983 0-135.966 61.021-135.966 135.994 0 8.049 6.543 14.563 14.563 14.563 8.049 0 14.563-6.515 14.563-14.563 0-58.925 47.953-106.867 106.838-106.867 8.039 0 14.563-6.515 14.563-14.563 0-8.039-6.485-14.563-14.563-14.563z" fill="#d81e06" p-id="8121"></path></svg>